<svg id="Layer_1" enable-background="new 0 0 512.101 512.101" height="512" viewBox="0 0 512.101 512.101" width="512" xmlns="http://www.w3.org/2000/svg" xmlns:xlink="http://www.w3.org/1999/xlink"><linearGradient id="SVGID_1_" gradientUnits="userSpaceOnUse" x1="256.051" x2="256.051" y1="0" y2="512.101"><stop offset="0" stop-color="#2af598"/><stop offset="1" stop-color="#009efd"/></linearGradient><path d="m256.051 0c-113.037 0-205 91.963-205 205 0 57.07 32.719 124.575 97.249 200.639 46.811 55.177 92.959 94.058 94.9 95.687l12.851 10.776 12.851-10.776c1.941-1.628 48.09-40.509 94.9-95.687 64.53-76.064 97.249-143.568 97.249-200.639 0-113.037-91.963-205-205-205zm0 40c90.981 0 165 74.019 165 165 0 17.95-4.293 36.731-11.536 55.651l-31.464-27.324v-86.327h-40v51.59l-83-72.079-152.953 132.828c-6.942-18.476-11.047-36.804-11.047-54.339 0-90.981 74.018-165 165-165zm0 419.321c-28.409-25.785-97.061-91.96-136.272-162.359l135.272-117.473 136.621 118.644c-39.318 69.961-107.371 135.547-135.621 161.188zm-31-186.321h60v60h-60z" fill="url(#SVGID_1_)"/></svg>