<svg id="Fill_Outline" height="512" viewBox="0 0 64 64" width="512" xmlns="http://www.w3.org/2000/svg" data-name="Fill Outline"><path d="m33 27h-3a3.952 3.952 0 0 0 -5.238-3.785 7 7 0 0 0 -13.21-.944 4.93 4.93 0 0 0 -1.552-.271 5 5 0 1 0 3.608 8.447 6.981 6.981 0 0 0 9.51-.683 3.98 3.98 0 0 0 2.882 1.236h11a4 4 0 0 0 -4-4z" fill="#aae1f9"/><path d="m57 7h-1.184a2.959 2.959 0 0 0 -4.184-1.656 3.986 3.986 0 0 0 -7.264 0 3 3 0 1 0 .932 4.556 3.924 3.924 0 0 0 2.7 1.1 3.974 3.974 0 0 0 2.715-1.078 2.978 2.978 0 0 0 2.285 1.078h8a4 4 0 0 0 -4-4z" fill="#aae1f9"/><path d="m53 9a2.978 2.978 0 0 1 -2.285-1.078 3.974 3.974 0 0 1 -2.715 1.078 3.924 3.924 0 0 1 -2.7-1.1 2.975 2.975 0 0 1 -5.116-.9 2.962 2.962 0 0 0 -.184 1 2.988 2.988 0 0 0 5.3 1.9 3.924 3.924 0 0 0 2.7 1.1 3.974 3.974 0 0 0 2.715-1.078 2.978 2.978 0 0 0 2.285 1.078h8a3.955 3.955 0 0 0 -.555-2z" fill="#57b7eb"/><path d="m35.62 28h-9.62a3.944 3.944 0 0 1 -1.543-.317 6.942 6.942 0 0 0 .414-1.359 14.922 14.922 0 0 1 -13.742 0 6.933 6.933 0 0 0 .861 2.259 4.924 4.924 0 0 1 -1.99.417 4.985 4.985 0 0 1 -4.746-3.5 4.979 4.979 0 0 0 8.354 4.947c.011.009.024.015.034.023a6.974 6.974 0 0 0 9.463-.692l.013-.014a3.98 3.98 0 0 0 2.882 1.236h11a3.972 3.972 0 0 0 -1.38-3z" fill="#57b7eb"/><g fill="#39519d"><path d="m18 33a8 8 0 0 1 -7.664-5.714 1 1 0 0 1 1.916-.572 5.989 5.989 0 0 0 10.134 2.369 1 1 0 0 1 .724-.319 1.079 1.079 0 0 1 .73.308 2.974 2.974 0 0 0 2.16.928h9.829a3.006 3.006 0 0 0 -2.829-2h-3a1 1 0 0 1 -1-1 3 3 0 0 0 -3-3 2.945 2.945 0 0 0 -.928.166 1 1 0 0 1 -1.277-.7 6 6 0 0 0 -11.321-.809 1 1 0 0 1 -1.233.56 3.958 3.958 0 0 0 -1.241-.217 4 4 0 0 0 0 8 1 1 0 0 1 0 2 6 6 0 0 1 0-12 5.326 5.326 0 0 1 1.015.1 8 8 0 0 1 14.41.939 4.957 4.957 0 0 1 5.475 3.961h2.1a5.006 5.006 0 0 1 5 5 1 1 0 0 1 -1 1h-11a4.936 4.936 0 0 1 -2.845-.893 8.014 8.014 0 0 1 -5.155 1.893z"/><path d="m37 46a6 6 0 0 1 0-12h19a1 1 0 0 1 0 2h-19a4 4 0 1 0 4 4 1 1 0 0 1 2 0 6.006 6.006 0 0 1 -6 6z"/><path d="m61 31h-17a1 1 0 0 1 0-2h17a1 1 0 0 1 0 2z"/><path d="m51 25h-10.5a5.5 5.5 0 1 1 5.5-5.5 1 1 0 0 1 -2 0 3.5 3.5 0 1 0 -3.5 3.5h10.5a1 1 0 0 1 0 2z"/><path d="m53 51h-10a1 1 0 0 1 0-2h10a1 1 0 0 1 0 2z"/><path d="m13 59a5 5 0 0 1 0-10h26a1 1 0 0 1 0 2h-26a3 3 0 1 0 3 3 1 1 0 0 1 2 0 5.006 5.006 0 0 1 -5 5z"/><path d="m58 44h-10a1 1 0 0 1 0-2h10a1 1 0 0 1 0 2z"/><path d="m26 46h-19a5 5 0 1 1 5-5 1 1 0 0 1 -2 0 3 3 0 1 0 -3 3h19a1 1 0 0 1 0 2z"/><path d="m61 12h-8a3.959 3.959 0 0 1 -2.346-.773 4.975 4.975 0 0 1 -5.291-.014 3.943 3.943 0 0 1 -2.363.787 4 4 0 0 1 0-8 3.84 3.84 0 0 1 .928.114 4.979 4.979 0 0 1 8.144 0 4.015 4.015 0 0 1 4.379 1.886h1.549a1 1 0 0 1 0 2h-2.184a1 1 0 0 1 -.942-.665 1.981 1.981 0 0 0 -2.784-1.1 1 1 0 0 1 -1.368-.474 2.986 2.986 0 0 0 -5.444 0 1 1 0 0 1 -1.368.474 2 2 0 1 0 .622 3.031 1 1 0 0 1 .708-.366.979.979 0 0 1 .747.269 2.924 2.924 0 0 0 2.013.831 2.985 2.985 0 0 0 2.034-.81.967.967 0 0 1 .742-.266 1 1 0 0 1 .7.354 1.993 1.993 0 0 0 1.524.722h8a1 1 0 0 1 0 2z"/><path d="m61 17h-9a1 1 0 0 1 0-2h9a1 1 0 0 1 0 2z"/><path d="m40 62a3 3 0 0 1 0-6h18a1 1 0 0 1 0 2h-18a1 1 0 0 0 0 2 1 1 0 0 1 0 2z"/><path d="m35 55h-8a1 1 0 0 1 0-2h8a1 1 0 0 1 0 2z"/></g></svg>